<mxfile host="app.diagrams.net" modified="2023-06-21T22:39:49.641Z" agent="Mozilla/5.0 (X11; Linux x86_64) AppleWebKit/537.36 (KHTML, like Gecko) Chrome/114.0.0.0 Safari/537.36" version="21.5.0" etag="ygVyunYh5cj5_y88xdJa" type="github">
  <diagram name="PÃ¡gina-1" id="-nt99E7DfNi-NXTgd74f">
    <mxGraphModel>
      <root>
        <mxCell id="0" />
        <mxCell id="1" parent="0" />
      </root>
    </mxGraphModel>
  </diagram>
</mxfile>
